<svg xmlns="http://www.w3.org/2000/svg" xmlns:xlink="http://www.w3.org/1999/xlink" width="500" zoomAndPan="magnify" viewBox="0 0 375 374.999991" height="500" preserveAspectRatio="xMidYMid meet" version="1.0"><defs><clipPath id="736460c1b3"><path d="M 112.5 112.6875 L 262.5 112.6875 L 262.5 262.6875 L 112.5 262.6875 Z M 112.5 112.6875 " clip-rule="nonzero"/></clipPath></defs><g clip-path="url(#736460c1b3)"><path fill="#d7ff00" d="M 262.492188 187.496094 C 262.492188 188.722656 262.460938 189.945312 262.402344 191.167969 C 262.34375 192.390625 262.25 193.613281 262.132812 194.832031 C 262.011719 196.050781 261.859375 197.265625 261.679688 198.476562 C 261.5 199.6875 261.292969 200.890625 261.050781 202.09375 C 260.8125 203.292969 260.542969 204.488281 260.246094 205.675781 C 259.945312 206.863281 259.621094 208.042969 259.261719 209.214844 C 258.90625 210.386719 258.523438 211.546875 258.109375 212.699219 C 257.695312 213.851562 257.253906 214.996094 256.785156 216.125 C 256.316406 217.257812 255.816406 218.375 255.292969 219.484375 C 254.769531 220.589844 254.214844 221.683594 253.636719 222.761719 C 253.058594 223.84375 252.453125 224.90625 251.824219 225.957031 C 251.191406 227.007812 250.535156 228.042969 249.855469 229.058594 C 249.171875 230.078125 248.464844 231.078125 247.734375 232.0625 C 247.003906 233.046875 246.25 234.011719 245.472656 234.957031 C 244.691406 235.902344 243.890625 236.832031 243.066406 237.738281 C 242.242188 238.644531 241.394531 239.53125 240.527344 240.398438 C 239.660156 241.261719 238.773438 242.105469 237.863281 242.929688 C 236.953125 243.75 236.023438 244.550781 235.074219 245.328125 C 234.128906 246.105469 233.160156 246.855469 232.175781 247.585938 C 231.1875 248.316406 230.183594 249.019531 229.164062 249.699219 C 228.144531 250.378906 227.109375 251.035156 226.054688 251.664062 C 225.003906 252.292969 223.933594 252.898438 222.851562 253.476562 C 221.769531 254.050781 220.675781 254.601562 219.566406 255.125 C 218.457031 255.648438 217.332031 256.144531 216.199219 256.613281 C 215.066406 257.082031 213.921875 257.523438 212.765625 257.933594 C 211.609375 258.347656 210.445312 258.730469 209.269531 259.085938 C 208.097656 259.441406 206.914062 259.769531 205.722656 260.066406 C 204.53125 260.363281 203.335938 260.632812 202.132812 260.871094 C 200.929688 261.109375 199.71875 261.320312 198.503906 261.5 C 197.292969 261.679688 196.074219 261.828125 194.851562 261.949219 C 193.632812 262.066406 192.40625 262.15625 191.183594 262.21875 C 189.957031 262.277344 188.730469 262.308594 187.503906 262.308594 C 186.273438 262.308594 185.046875 262.277344 183.824219 262.21875 C 182.597656 262.15625 181.375 262.066406 180.152344 261.949219 C 178.929688 261.828125 177.714844 261.679688 176.5 261.5 C 175.285156 261.320312 174.078125 261.109375 172.871094 260.871094 C 171.667969 260.632812 170.472656 260.363281 169.28125 260.066406 C 168.089844 259.769531 166.910156 259.441406 165.734375 259.085938 C 164.558594 258.730469 163.394531 258.347656 162.238281 257.933594 C 161.082031 257.523438 159.9375 257.082031 158.804688 256.613281 C 157.671875 256.144531 156.550781 255.648438 155.441406 255.125 C 154.332031 254.601562 153.234375 254.050781 152.152344 253.476562 C 151.070312 252.898438 150.003906 252.292969 148.949219 251.664062 C 147.898438 251.035156 146.859375 250.378906 145.839844 249.699219 C 144.820312 249.019531 143.816406 248.316406 142.832031 247.585938 C 141.84375 246.855469 140.878906 246.105469 139.929688 245.328125 C 138.980469 244.550781 138.050781 243.75 137.140625 242.929688 C 136.234375 242.105469 135.34375 241.261719 134.476562 240.398438 C 133.609375 239.53125 132.761719 238.644531 131.9375 237.738281 C 131.113281 236.832031 130.3125 235.902344 129.535156 234.957031 C 128.753906 234.011719 128 233.046875 127.269531 232.0625 C 126.539062 231.078125 125.832031 230.078125 125.148438 229.058594 C 124.46875 228.042969 123.8125 227.007812 123.179688 225.957031 C 122.550781 224.90625 121.945312 223.84375 121.367188 222.761719 C 120.789062 221.683594 120.238281 220.589844 119.710938 219.484375 C 119.1875 218.375 118.691406 217.257812 118.21875 216.125 C 117.75 214.996094 117.308594 213.851562 116.894531 212.699219 C 116.480469 211.546875 116.097656 210.386719 115.742188 209.214844 C 115.386719 208.042969 115.058594 206.863281 114.757812 205.675781 C 114.460938 204.488281 114.191406 203.292969 113.953125 202.09375 C 113.714844 200.890625 113.503906 199.6875 113.324219 198.476562 C 113.144531 197.265625 112.992188 196.050781 112.875 194.832031 C 112.753906 193.613281 112.664062 192.390625 112.601562 191.167969 C 112.542969 189.945312 112.511719 188.722656 112.511719 187.496094 C 112.511719 186.273438 112.542969 185.050781 112.601562 183.828125 C 112.664062 182.605469 112.753906 181.382812 112.875 180.164062 C 112.992188 178.945312 113.144531 177.730469 113.324219 176.519531 C 113.503906 175.308594 113.714844 174.105469 113.953125 172.902344 C 114.191406 171.703125 114.460938 170.507812 114.757812 169.320312 C 115.058594 168.132812 115.386719 166.953125 115.742188 165.78125 C 116.097656 164.609375 116.480469 163.449219 116.894531 162.296875 C 117.308594 161.140625 117.75 160 118.21875 158.871094 C 118.691406 157.738281 119.1875 156.617188 119.710938 155.511719 C 120.238281 154.40625 120.789062 153.3125 121.367188 152.234375 C 121.945312 151.152344 122.550781 150.085938 123.179688 149.039062 C 123.8125 147.988281 124.46875 146.953125 125.148438 145.933594 C 125.832031 144.917969 126.539062 143.917969 127.269531 142.933594 C 128 141.949219 128.753906 140.984375 129.535156 140.039062 C 130.3125 139.09375 131.113281 138.164062 131.9375 137.257812 C 132.761719 136.351562 133.609375 135.464844 134.476562 134.597656 C 135.34375 133.734375 136.234375 132.890625 137.140625 132.066406 C 138.050781 131.246094 138.980469 130.445312 139.929688 129.667969 C 140.878906 128.890625 141.84375 128.140625 142.832031 127.410156 C 143.816406 126.679688 144.820312 125.976562 145.839844 125.296875 C 146.859375 124.613281 147.898438 123.960938 148.949219 123.332031 C 150.003906 122.703125 151.070312 122.097656 152.152344 121.519531 C 153.234375 120.945312 154.332031 120.394531 155.441406 119.871094 C 156.550781 119.347656 157.671875 118.851562 158.804688 118.382812 C 159.9375 117.914062 161.082031 117.472656 162.238281 117.0625 C 163.394531 116.648438 164.558594 116.265625 165.734375 115.910156 C 166.910156 115.554688 168.089844 115.226562 169.28125 114.929688 C 170.472656 114.632812 171.667969 114.363281 172.871094 114.125 C 174.078125 113.886719 175.285156 113.675781 176.5 113.496094 C 177.714844 113.316406 178.929688 113.167969 180.152344 113.046875 C 181.375 112.925781 182.597656 112.835938 183.824219 112.777344 C 185.046875 112.71875 186.273438 112.6875 187.503906 112.6875 C 188.730469 112.6875 189.957031 112.71875 191.183594 112.777344 C 192.40625 112.835938 193.632812 112.925781 194.851562 113.046875 C 196.074219 113.167969 197.292969 113.316406 198.503906 113.496094 C 199.71875 113.675781 200.929688 113.886719 202.132812 114.125 C 203.335938 114.363281 204.53125 114.632812 205.722656 114.929688 C 206.914062 115.226562 208.097656 115.554688 209.269531 115.910156 C 210.445312 116.265625 211.609375 116.648438 212.765625 117.0625 C 213.921875 117.472656 215.066406 117.914062 216.199219 118.382812 C 217.332031 118.851562 218.457031 119.347656 219.566406 119.871094 C 220.675781 120.394531 221.769531 120.945312 222.851562 121.519531 C 223.933594 122.097656 225.003906 122.703125 226.054688 123.332031 C 227.109375 123.960938 228.144531 124.613281 229.164062 125.296875 C 230.183594 125.976562 231.1875 126.679688 232.175781 127.410156 C 233.160156 128.140625 234.128906 128.890625 235.074219 129.667969 C 236.023438 130.445312 236.953125 131.246094 237.863281 132.066406 C 238.773438 132.890625 239.660156 133.734375 240.527344 134.597656 C 241.394531 135.464844 242.242188 136.351562 243.066406 137.257812 C 243.890625 138.164062 244.691406 139.09375 245.46875 140.039062 C 246.25 140.984375 247.003906 141.949219 247.734375 142.933594 C 248.464844 143.917969 249.171875 144.917969 249.855469 145.933594 C 250.535156 146.953125 251.191406 147.988281 251.824219 149.039062 C 252.453125 150.085938 253.058594 151.152344 253.636719 152.234375 C 254.214844 153.3125 254.769531 154.40625 255.292969 155.511719 C 255.816406 156.617188 256.316406 157.738281 256.785156 158.871094 C 257.253906 160 257.695312 161.140625 258.109375 162.296875 C 258.523438 163.449219 258.90625 164.609375 259.261719 165.78125 C 259.621094 166.953125 259.945312 168.132812 260.246094 169.320312 C 260.542969 170.507812 260.8125 171.703125 261.050781 172.902344 C 261.292969 174.105469 261.5 175.308594 261.679688 176.519531 C 261.859375 177.730469 262.011719 178.945312 262.132812 180.164062 C 262.25 181.382812 262.34375 182.605469 262.402344 183.828125 C 262.460938 185.050781 262.492188 186.273438 262.492188 187.496094 Z M 262.492188 187.496094 " fill-opacity="1" fill-rule="nonzero"/></g><path fill="#000000" d="M 250.308594 187.5 C 250.300781 194.113281 249.28125 200.628906 247.230469 206.929688 C 245.273438 212.945312 242.375 218.636719 238.695312 223.8125 C 235.113281 228.851562 230.652344 233.472656 225.738281 237.222656 C 220.703125 241.054688 215.085938 244.167969 209.171875 246.328125 C 202.984375 248.585938 196.5 249.859375 189.941406 250.105469 C 183.300781 250.351562 176.722656 249.589844 170.335938 247.78125 C 164.167969 246.039062 158.347656 243.367188 152.980469 239.847656 C 147.742188 236.410156 143.035156 232.175781 139.015625 227.335938 C 135.050781 222.554688 131.710938 217.015625 129.363281 211.265625 C 126.910156 205.261719 125.375 198.863281 124.882812 192.429688 C 124.375 185.769531 124.890625 179.097656 126.476562 172.628906 C 127.996094 166.410156 130.441406 160.523438 133.761719 155.054688 C 137.042969 149.65625 141.105469 144.808594 145.84375 140.605469 C 150.546875 136.4375 155.902344 132.984375 161.652344 130.375 C 167.449219 127.742188 173.84375 125.976562 180.171875 125.257812 C 186.789062 124.507812 193.53125 124.769531 200.03125 126.089844 C 206.359375 127.375 212.421875 129.609375 218.050781 132.742188 C 223.566406 135.816406 228.542969 139.660156 232.914062 144.214844 C 237.28125 148.773438 240.941406 153.96875 243.777344 159.644531 C 246.644531 165.367188 248.597656 171.574219 249.589844 177.929688 C 250.078125 181.054688 250.304688 184.296875 250.308594 187.5 C 250.3125 189.253906 253.035156 189.253906 253.035156 187.5 C 253.023438 180.671875 251.972656 173.835938 249.859375 167.34375 C 247.816406 161.074219 244.828125 155.109375 241 149.742188 C 237.144531 144.335938 232.515625 139.5625 227.246094 135.527344 C 222.011719 131.515625 216.167969 128.339844 209.980469 126.074219 C 203.589844 123.734375 196.824219 122.433594 190.03125 122.171875 C 183.160156 121.902344 176.226562 122.71875 169.609375 124.589844 C 163.242188 126.386719 157.136719 129.167969 151.605469 132.796875 C 146.121094 136.394531 141.160156 140.804688 136.984375 145.863281 C 132.75 150.992188 129.328125 156.699219 126.800781 162.847656 C 124.230469 169.097656 122.691406 175.742188 122.167969 182.480469 C 121.632812 189.347656 122.199219 196.316406 123.828125 203.007812 C 125.394531 209.445312 127.96875 215.65625 131.410156 221.316406 C 134.8125 226.921875 139.070312 232.027344 143.980469 236.371094 C 148.894531 240.71875 154.449219 244.347656 160.429688 247.046875 C 166.644531 249.84375 173.226562 251.652344 179.992188 252.441406 C 186.875 253.242188 193.878906 252.921875 200.667969 251.550781 C 207.199219 250.234375 213.527344 247.878906 219.351562 244.648438 C 225.089844 241.460938 230.359375 237.390625 234.898438 232.648438 C 239.433594 227.902344 243.25 222.507812 246.167969 216.652344 C 249.152344 210.667969 251.230469 204.234375 252.242188 197.621094 C 252.757812 194.269531 253.027344 190.890625 253.03125 187.5 C 253.035156 185.746094 250.3125 185.742188 250.308594 187.5 Z M 250.308594 187.5 " fill-opacity="1" fill-rule="nonzero"/><path fill="#000000" d="M 223.167969 195.234375 C 223.167969 196.210938 223.128906 197.1875 223.050781 198.160156 C 223.015625 198.628906 222.96875 199.097656 222.910156 199.5625 C 222.898438 199.675781 222.871094 199.792969 222.867188 199.910156 C 222.878906 199.675781 222.882812 199.785156 222.863281 199.941406 C 222.828125 200.1875 222.789062 200.433594 222.75 200.675781 C 222.453125 202.476562 222.011719 204.253906 221.421875 205.980469 C 221.28125 206.398438 221.128906 206.8125 220.96875 207.226562 C 220.890625 207.433594 220.808594 207.636719 220.726562 207.839844 C 220.707031 207.882812 220.6875 207.925781 220.671875 207.972656 C 220.601562 208.144531 220.773438 207.734375 220.699219 207.90625 C 220.648438 208.019531 220.597656 208.136719 220.550781 208.25 C 220.199219 209.050781 219.816406 209.832031 219.398438 210.601562 C 218.980469 211.375 218.53125 212.132812 218.050781 212.871094 C 217.8125 213.230469 217.570312 213.585938 217.320312 213.9375 C 217.195312 214.113281 217.070312 214.289062 216.941406 214.460938 C 216.886719 214.535156 216.832031 214.609375 216.777344 214.683594 C 216.695312 214.789062 216.542969 215.027344 216.707031 214.773438 C 216.234375 215.492188 215.59375 216.148438 215.015625 216.78125 C 214.4375 217.414062 213.828125 218.03125 213.199219 218.617188 C 212.554688 219.21875 211.890625 219.796875 211.203125 220.347656 C 211.117188 220.414062 211.035156 220.480469 210.949219 220.550781 C 210.910156 220.578125 210.671875 220.761719 210.828125 220.640625 C 210.996094 220.519531 210.714844 220.730469 210.671875 220.761719 C 210.574219 220.835938 210.472656 220.910156 210.371094 220.984375 C 210.023438 221.242188 209.667969 221.496094 209.304688 221.738281 C 207.839844 222.738281 206.292969 223.628906 204.695312 224.402344 C 204.28125 224.605469 203.859375 224.800781 203.4375 224.984375 C 203.351562 225.023438 203.261719 225.0625 203.175781 225.101562 C 203.117188 225.125 203.058594 225.152344 202.996094 225.175781 C 203 225.175781 203.246094 225.074219 203.101562 225.132812 C 202.878906 225.222656 202.65625 225.316406 202.433594 225.402344 C 201.589844 225.738281 200.738281 226.039062 199.875 226.3125 C 198.097656 226.878906 196.277344 227.316406 194.441406 227.628906 C 194.210938 227.671875 193.976562 227.707031 193.746094 227.742188 C 193.628906 227.761719 193.511719 227.777344 193.394531 227.796875 C 193.304688 227.808594 192.886719 227.851562 193.257812 227.816406 C 192.785156 227.863281 192.3125 227.933594 191.839844 227.980469 C 190.882812 228.078125 189.925781 228.140625 188.960938 228.171875 C 186.992188 228.234375 185.019531 228.171875 183.058594 227.972656 C 182.839844 227.949219 182.621094 227.925781 182.402344 227.898438 C 182.285156 227.886719 182.164062 227.871094 182.046875 227.855469 C 181.996094 227.851562 181.949219 227.84375 181.898438 227.835938 C 181.707031 227.8125 181.753906 227.792969 181.90625 227.839844 C 181.476562 227.707031 180.960938 227.699219 180.511719 227.621094 C 179.597656 227.464844 178.683594 227.273438 177.78125 227.054688 C 175.976562 226.617188 174.203125 226.054688 172.480469 225.367188 C 172.289062 225.292969 172.09375 225.210938 171.902344 225.132812 C 171.757812 225.074219 172.003906 225.175781 172.007812 225.175781 C 171.945312 225.152344 171.886719 225.125 171.828125 225.101562 C 171.710938 225.050781 171.59375 225 171.476562 224.945312 C 171.070312 224.765625 170.664062 224.578125 170.265625 224.382812 C 169.46875 223.996094 168.6875 223.582031 167.921875 223.136719 C 167.152344 222.691406 166.394531 222.214844 165.65625 221.710938 C 165.296875 221.46875 164.941406 221.214844 164.59375 220.957031 C 164.503906 220.890625 164.417969 220.828125 164.332031 220.761719 C 164.28125 220.722656 164.019531 220.527344 164.171875 220.640625 C 164.339844 220.765625 164.050781 220.546875 164.019531 220.519531 C 163.921875 220.441406 163.824219 220.367188 163.726562 220.289062 C 162.371094 219.195312 161.097656 218 159.925781 216.710938 C 159.636719 216.394531 159.351562 216.070312 159.078125 215.742188 C 158.949219 215.589844 158.820312 215.433594 158.695312 215.277344 C 158.628906 215.195312 158.5625 215.109375 158.496094 215.027344 C 158.464844 214.988281 158.222656 214.679688 158.34375 214.839844 C 158.464844 214.992188 158.265625 214.734375 158.226562 214.683594 C 158.164062 214.597656 158.097656 214.511719 158.035156 214.425781 C 157.90625 214.25 157.78125 214.078125 157.65625 213.902344 C 157.398438 213.535156 157.148438 213.167969 156.90625 212.792969 C 155.949219 211.320312 155.117188 209.773438 154.417969 208.164062 C 154.375 208.0625 154.324219 207.964844 154.285156 207.863281 C 154.367188 208.070312 154.339844 207.984375 154.28125 207.839844 C 154.191406 207.621094 154.101562 207.402344 154.019531 207.183594 C 153.859375 206.769531 153.707031 206.351562 153.566406 205.933594 C 153.273438 205.070312 153.015625 204.195312 152.796875 203.308594 C 152.578125 202.421875 152.394531 201.527344 152.246094 200.625 C 152.210938 200.398438 152.175781 200.171875 152.140625 199.941406 C 152.136719 199.890625 152.128906 199.84375 152.121094 199.792969 C 152.09375 199.597656 152.152344 200.054688 152.128906 199.859375 C 152.117188 199.742188 152.101562 199.628906 152.085938 199.511719 C 152.027344 199.027344 151.980469 198.542969 151.945312 198.058594 C 151.871094 197.117188 151.835938 196.175781 151.835938 195.234375 C 151.835938 194.519531 151.210938 193.839844 150.472656 193.871094 C 149.738281 193.902344 149.109375 194.46875 149.109375 195.234375 C 149.117188 199.132812 149.707031 203.054688 150.96875 206.746094 C 152.191406 210.324219 153.996094 213.644531 156.3125 216.625 C 158.542969 219.503906 161.242188 221.984375 164.246094 224.039062 C 167.34375 226.160156 170.785156 227.789062 174.359375 228.925781 C 178.128906 230.128906 182.089844 230.765625 186.039062 230.894531 C 190.050781 231.027344 194.097656 230.625 197.996094 229.671875 C 201.664062 228.773438 205.230469 227.363281 208.496094 225.464844 C 211.660156 223.628906 214.578125 221.316406 217.035156 218.605469 C 219.492188 215.894531 221.527344 212.808594 222.976562 209.453125 C 224.542969 205.839844 225.472656 202.03125 225.78125 198.109375 C 225.859375 197.152344 225.894531 196.191406 225.894531 195.234375 C 225.894531 194.519531 225.265625 193.839844 224.53125 193.871094 C 223.792969 193.902344 223.171875 194.46875 223.167969 195.234375 Z M 223.167969 195.234375 " fill-opacity="1" fill-rule="nonzero"/><path fill="#000000" d="M 162.324219 148.125 C 165.542969 161.238281 168.152344 163.839844 181.292969 167.050781 C 168.152344 170.261719 165.542969 172.863281 162.324219 185.976562 C 159.105469 172.863281 156.496094 170.261719 143.351562 167.050781 C 156.496094 163.839844 159.105469 161.238281 162.324219 148.125 Z M 162.324219 148.125 " fill-opacity="1" fill-rule="nonzero"/><path fill="#000000" d="M 212.679688 148.125 C 215.898438 161.238281 218.507812 163.839844 231.652344 167.050781 C 218.507812 170.261719 215.898438 172.863281 212.679688 185.976562 C 209.464844 172.863281 206.855469 170.261719 193.710938 167.050781 C 206.855469 163.839844 209.464844 161.238281 212.679688 148.125 Z M 212.679688 148.125 " fill-opacity="1" fill-rule="nonzero"/></svg>