<svg xmlns="http://www.w3.org/2000/svg" xmlns:xlink="http://www.w3.org/1999/xlink" width="500" zoomAndPan="magnify" viewBox="0 0 375 374.999991" height="500" preserveAspectRatio="xMidYMid meet" version="1.0"><defs><clipPath id="d5b93039ff"><path d="M 8.59375 21.117188 L 366.34375 21.117188 L 366.34375 354 L 8.59375 354 Z M 8.59375 21.117188 " clip-rule="nonzero"/></clipPath></defs><g clip-path="url(#d5b93039ff)"><path fill="#1c14ff" d="M 183.875 23.28125 C 185.003906 22.4375 185.9375 20.722656 187.601562 21.242188 C 191.53125 22.292969 195.574219 23.347656 199.640625 23.519531 C 199.988281 23.238281 200.710938 22.683594 201.0625 22.410156 C 206.566406 23.667969 212.183594 24.226562 217.742188 25.242188 C 222.492188 26.765625 227.675781 26.578125 232.203125 28.867188 C 233.097656 28.378906 233.753906 26.625 234.984375 27.347656 C 237.933594 28.804688 240.871094 30.402344 244.210938 30.804688 C 246.84375 32.804688 250.128906 33.460938 253.074219 34.859375 C 253.328125 34.632812 253.851562 34.1875 254.105469 33.96875 C 256.480469 34.492188 258.984375 34.921875 261.039062 36.335938 C 265.179688 38.914062 269.890625 40.617188 273.671875 43.761719 C 274.90625 44.75 276.519531 45.0625 277.917969 45.800781 C 281.984375 47.625 285.136719 50.886719 288.9375 53.144531 C 292.148438 55.003906 294.746094 57.691406 297.664062 59.964844 C 302.207031 62.589844 306.199219 66.203125 309.691406 70.089844 C 313.105469 71.945312 315.273438 75.226562 318.167969 77.730469 C 323.96875 82.53125 328.390625 88.710938 333.121094 94.511719 C 335.332031 97.777344 337.894531 100.824219 339.609375 104.414062 C 344.335938 111.941406 348.277344 120.027344 351.089844 128.480469 C 353.867188 134.808594 355.371094 141.585938 357.890625 148 C 360.871094 157.660156 363.464844 167.453125 365.125 177.433594 C 365.78125 180.234375 365.921875 183.113281 365.949219 185.992188 C 366.09375 188.113281 366.078125 190.265625 366.28125 192.398438 C 366.351562 195.046875 366.03125 197.710938 366.269531 200.375 C 366.007812 210.410156 364.234375 220.355469 361.921875 230.113281 C 359.710938 241.976562 354.4375 252.941406 350.0625 264.109375 C 348.015625 268.570312 345.773438 272.949219 343.476562 277.296875 C 338.367188 287.304688 331.425781 296.207031 324.664062 305.125 C 324.140625 305.597656 323.625 306.078125 323.121094 306.566406 C 319.953125 311.101562 315.371094 314.292969 311.5 318.164062 C 308.84375 319.707031 306.742188 322.042969 304.007812 323.441406 C 298.050781 327.769531 291.621094 331.402344 284.925781 334.464844 C 282.941406 335.085938 281.214844 336.246094 279.464844 337.335938 C 272.179688 340.824219 264.519531 343.441406 256.894531 346.066406 C 250.675781 347.582031 244.714844 350.152344 238.320312 350.910156 C 232.730469 352.839844 226.730469 352.300781 220.980469 353.429688 C 218.527344 352.933594 216.066406 353.445312 213.648438 353.863281 C 211.113281 353.285156 208.515625 353.386719 205.972656 353.8125 C 203.699219 353.53125 201.414062 353.574219 199.148438 353.382812 C 192.9375 353.316406 186.804688 352.484375 180.675781 351.558594 C 178.582031 351.246094 176.566406 350.285156 174.429688 350.640625 C 172.914062 350.265625 171.382812 349.957031 169.832031 349.886719 C 160.761719 347.664062 151.421875 346.550781 142.570312 343.445312 C 134.664062 341.425781 127.058594 338.414062 119.390625 335.648438 C 118.316406 335.160156 117.253906 334.714844 116.230469 334.191406 C 111.847656 332.632812 107.535156 330.730469 103.394531 328.667969 C 98.5 326.363281 93.742188 323.792969 89.082031 321.074219 C 79.214844 315.46875 69.960938 308.804688 61.472656 301.273438 C 60.363281 300.144531 59.203125 299.089844 58.140625 297.945312 C 47.160156 286.9375 37.507812 274.484375 30.230469 260.699219 C 26.679688 253.878906 23.128906 247.0625 20.074219 240.007812 C 18.300781 234.386719 15.796875 229.027344 14.214844 223.347656 C 10.757812 211.734375 9.007812 199.613281 8.917969 187.507812 C 8.816406 184.65625 8.414062 181.816406 8.847656 178.996094 C 8.429688 165.597656 10.429688 152.222656 13.277344 139.160156 C 13.332031 138.441406 13.375 137.738281 13.382812 137.050781 C 15.355469 130.675781 16.472656 124.082031 18.523438 117.738281 C 20.6875 110.695312 23.023438 103.679688 25.941406 96.886719 C 29.839844 89.085938 33.988281 81.433594 38.699219 74.089844 C 40.59375 72.113281 42.371094 69.988281 44.457031 68.203125 C 45.648438 67.5625 45.6875 66.15625 46.074219 65.019531 C 48.03125 63.332031 50.597656 62.746094 53.117188 62.542969 C 57.402344 63.148438 62.050781 62.21875 65.992188 64.476562 C 68.578125 65.109375 69.980469 67.324219 70.75 69.726562 C 72.847656 69.058594 74.382812 67.542969 76.148438 66.339844 C 77.476562 66.203125 78.820312 66.285156 80.164062 66.214844 C 79.648438 66.078125 78.628906 65.820312 78.117188 65.691406 C 78.449219 64.4375 79.339844 63.605469 80.378906 62.925781 C 80.585938 63.453125 81.003906 64.5 81.210938 65.03125 C 81.089844 64.484375 80.859375 63.382812 80.742188 62.835938 C 81.707031 62.15625 82.683594 61.492188 83.628906 60.78125 C 86.355469 58.816406 90.566406 59 92.335938 55.804688 C 93.214844 56.023438 93.84375 55.285156 94.566406 54.902344 C 95.734375 54.488281 96.941406 54.144531 98.207031 54.304688 C 98.207031 53.992188 98.207031 53.386719 98.207031 53.070312 C 99.421875 52.460938 100.539062 51.503906 101.980469 51.472656 C 103.722656 50.386719 105.441406 49.257812 107.28125 48.335938 C 108.183594 48.902344 110.929688 47.800781 109.207031 46.746094 C 108.890625 46.488281 108.238281 45.992188 107.921875 45.746094 C 108.382812 45.289062 108.855469 44.839844 109.347656 44.417969 C 110.921875 45.21875 112.199219 43.863281 113.550781 43.238281 C 114.621094 43.105469 115.703125 43.035156 116.804688 43.039062 C 116.277344 42.792969 115.230469 42.304688 114.703125 42.058594 C 116.582031 41.113281 118.421875 40.09375 120.292969 39.136719 C 121.804688 38.34375 124.019531 38.976562 125.019531 37.367188 C 126.203125 36.96875 127.394531 36.578125 128.59375 36.175781 C 130.042969 35.378906 131.65625 34.988281 133.300781 34.867188 C 135.167969 34.25 137.039062 33.644531 139.011719 33.476562 C 139.210938 33.121094 139.613281 32.410156 139.804688 32.050781 C 141.148438 32.019531 142.5 32.066406 143.859375 31.933594 C 145.507812 31.058594 146.867188 29.625 148.789062 29.355469 C 153.417969 28.890625 157.988281 27.820312 162.515625 26.738281 C 162.730469 26.621094 163.164062 26.378906 163.382812 26.25 C 165.632812 27.605469 166.160156 24.699219 168.03125 24.164062 C 168.875 23.9375 169.769531 23.898438 170.65625 23.835938 C 175.039062 23.078125 179.429688 22.523438 183.875 23.28125 Z M 199.40625 49.046875 C 195.898438 49.277344 192.390625 49.574219 188.878906 49.800781 C 187.152344 50.074219 185.410156 50.257812 183.675781 50.222656 C 178.285156 50.375 173.179688 52.257812 167.875 52.933594 C 160.511719 54.566406 153.277344 56.71875 146.195312 59.300781 C 143.507812 60.132812 140.652344 60.34375 138.070312 61.511719 C 131.96875 64.230469 125.570312 66.1875 119.644531 69.316406 C 104.820312 77.15625 89.96875 85.378906 77.347656 96.566406 C 75.503906 98.039062 73.40625 99.207031 71.820312 100.992188 C 69.152344 103.75 65.984375 106.007812 63.640625 109.078125 C 61.890625 111.269531 59.996094 113.492188 57.402344 114.71875 C 55.941406 117.308594 53.859375 119.445312 51.773438 121.539062 C 52.839844 119.277344 53.695312 116.917969 54.453125 114.550781 C 51.070312 116.234375 50.488281 120.246094 47.527344 122.316406 C 47.34375 122.675781 46.96875 123.394531 46.785156 123.753906 C 46.449219 123.953125 45.769531 124.339844 45.433594 124.53125 C 45.839844 123.699219 46.65625 122.035156 47.058594 121.195312 C 45.261719 121.820312 44.671875 123.667969 43.785156 125.074219 C 45.703125 126.738281 43.25 128.515625 42.753906 130.257812 C 40.332031 136.863281 38.875 143.75 37.21875 150.582031 C 36.246094 155.703125 34.78125 160.789062 34.40625 166.003906 C 32.636719 174.953125 32.710938 184.105469 32.070312 193.175781 C 32.394531 198.742188 32.078125 204.335938 32.320312 209.917969 C 32.664062 211.8125 32.613281 213.757812 32.882812 215.6875 C 33.78125 223.15625 35.238281 230.585938 37.738281 237.699219 C 40.171875 246.117188 44.953125 253.558594 48.800781 261.355469 C 56.125 274.242188 65.914062 285.664062 77.523438 294.878906 C 80.90625 297.191406 84.160156 299.679688 87.457031 302.117188 C 93.453125 304.933594 99.507812 307.597656 105.53125 310.359375 C 123.210938 316.628906 141.332031 321.785156 159.886719 324.675781 C 167.058594 326.203125 174.335938 327.144531 181.667969 327.449219 C 190.28125 327.9375 198.886719 327.613281 207.472656 327.027344 C 209.78125 326.65625 212.070312 325.875 214.441406 326.191406 C 218.191406 326.488281 221.71875 324.273438 225.46875 324.976562 C 227.523438 325.234375 229.429688 324.113281 231.410156 323.746094 C 234.488281 322.667969 237.710938 322.074219 240.824219 321.085938 C 244.523438 319.132812 248.660156 318.285156 252.511719 316.683594 C 259.855469 313.660156 266.886719 309.957031 273.746094 305.972656 C 282.878906 301.542969 290.949219 295.054688 297.90625 287.679688 C 303.574219 282.433594 307.546875 275.753906 312.105469 269.59375 C 313.425781 267.84375 314.242188 265.597656 316.28125 264.523438 C 317.824219 263.566406 318.652344 261.914062 319.160156 260.246094 C 320.023438 259.09375 320.617188 257.789062 321.195312 256.484375 C 321.25 255.511719 321.414062 254.558594 321.695312 253.65625 C 324.625 245.925781 329.195312 238.792969 331.117188 230.71875 C 332.761719 226.828125 334.332031 222.84375 335.097656 218.675781 C 336.9375 215.804688 337.167969 212.324219 338.316406 209.179688 C 339.203125 207.71875 338.84375 205.933594 339.074219 204.339844 C 339.167969 202.878906 339.351562 201.433594 339.566406 200.007812 C 339.894531 200.597656 340.546875 201.792969 340.871094 202.390625 C 341.191406 201.777344 341.824219 200.535156 342.144531 199.921875 C 341.046875 199.109375 340.5625 197.871094 340.21875 196.640625 C 341.664062 198.007812 343.695312 197.480469 343.273438 195.222656 C 342.695312 193.433594 343.75 190.28125 341.335938 189.761719 C 341.808594 189.214844 342.746094 188.128906 343.214844 187.582031 C 343.335938 185.542969 343.679688 183.539062 344.085938 181.5625 C 343.648438 179.265625 343.222656 176.964844 342.761719 174.683594 C 342.191406 174.851562 341.75 174.765625 341.433594 174.4375 C 341.449219 173.324219 341.433594 172.226562 341.390625 171.15625 L 341.746094 171.210938 C 341.875 172.378906 342.242188 173.546875 342.902344 174.566406 C 342.894531 171.585938 343.191406 168.554688 342.222656 165.699219 C 339.203125 150.984375 333.949219 136.878906 329.535156 122.554688 C 327.390625 116.40625 324.125 110.765625 320.816406 105.191406 C 318.792969 101.511719 316.328125 98.0625 313.613281 94.894531 C 312.285156 93.128906 310.644531 91.648438 309.261719 89.953125 C 307.675781 88.265625 305.765625 86.90625 304.375 85.066406 C 297.703125 77.289062 288.699219 72.210938 280.066406 66.988281 C 275.867188 64.910156 271.777344 62.546875 267.300781 61.140625 C 262.652344 58.597656 257.359375 57.800781 252.511719 55.773438 C 249.378906 54.605469 245.988281 54.550781 242.839844 53.511719 C 239.625 52.4375 236.167969 52.519531 232.953125 51.433594 C 226.03125 50.511719 219.125 49.558594 212.179688 48.945312 C 211.164062 48.945312 210.164062 48.976562 209.171875 49.039062 C 205.910156 48.621094 202.65625 49.589844 199.40625 49.046875 " fill-opacity="1" fill-rule="nonzero"/></g><path fill="#1c14ff" d="M 124.535156 122.109375 C 125.011719 122.109375 125.980469 122.109375 126.460938 122.105469 C 126.757812 122.4375 127.355469 123.109375 127.652344 123.449219 C 129.933594 123.800781 131.945312 124.925781 133.769531 126.320312 C 135.792969 127.148438 138.085938 127.160156 140.191406 127.832031 C 140.382812 128.125 140.773438 128.710938 140.972656 129.007812 C 143.964844 131.347656 146.875 133.894531 149.316406 136.820312 C 151.835938 143.84375 151.09375 152.847656 144.972656 157.832031 C 140.597656 159.9375 135.871094 157.601562 131.539062 156.539062 C 130.203125 155.722656 129.136719 154.570312 127.9375 153.597656 C 126.820312 153.058594 126.148438 152.050781 125.683594 150.972656 C 125.117188 150.660156 124.566406 150.355469 124.035156 150.074219 C 122.011719 146.285156 120.808594 142.035156 118.234375 138.546875 C 118.214844 136.628906 117.925781 134.605469 118.90625 132.863281 C 118.480469 131.789062 118.078125 130.742188 117.703125 129.6875 C 119.285156 128.863281 120.726562 127.800781 122.164062 126.75 C 121.726562 124.679688 123.210938 123.40625 124.535156 122.109375 " fill-opacity="1" fill-rule="nonzero"/><path fill="#1c14ff" d="M 89.976562 193.285156 C 91.101562 193.914062 92.335938 194.210938 93.613281 194.554688 L 92.597656 192.441406 C 93.902344 193.851562 95 195.453125 96.214844 196.96875 C 97.636719 197.308594 99.050781 197.660156 100.5 197.953125 C 101.296875 200.019531 103.386719 201.058594 105.289062 201.921875 C 106.65625 203.738281 107.550781 205.898438 109.191406 207.554688 C 110.007812 210.25 110.910156 212.953125 111.273438 215.777344 C 111.527344 216.074219 112.023438 216.671875 112.277344 216.964844 C 113.75 221.605469 113.851562 226.585938 115.679688 231.125 C 116.503906 233.605469 118.09375 235.707031 119.261719 238.027344 C 121.339844 244.011719 127.15625 247.257812 131.664062 251.242188 C 137.941406 255.601562 144.058594 260.414062 151.3125 263.113281 C 155.121094 264.425781 158.902344 265.878906 162.835938 266.785156 C 163.300781 267.269531 163.785156 267.777344 164.285156 268.300781 C 169.121094 269.34375 174.039062 269.824219 178.992188 270.023438 C 180.453125 269.871094 181.703125 270.765625 183.09375 271.070312 C 188.289062 270.613281 193.328125 269.207031 198.34375 267.839844 C 198.332031 267.398438 198.328125 266.511719 198.316406 266.066406 C 199.476562 266.320312 200.65625 266.578125 201.84375 266.832031 C 201.355469 266.429688 200.390625 265.625 199.902344 265.226562 C 201.03125 265.296875 202.042969 264.894531 203.003906 264.300781 C 203.398438 264.503906 203.796875 264.726562 204.203125 264.96875 C 205.667969 263.609375 207.417969 262.65625 209.203125 261.800781 C 209.980469 262.59375 210.738281 263.367188 211.523438 264.199219 C 214.761719 262.632812 217.90625 260.792969 220.613281 258.410156 C 217.089844 258.34375 214.394531 260.921875 211.058594 261.617188 C 213.585938 259.769531 216.328125 258.28125 219.105469 256.851562 C 225.429688 252.945312 231.074219 248.074219 236.824219 243.386719 C 235.792969 244.613281 234.683594 245.746094 233.640625 246.960938 C 235.152344 248.410156 236.433594 246.402344 237.753906 245.691406 C 239.945312 242.964844 242.730469 240.789062 244.796875 237.964844 L 243.203125 237.804688 C 245.332031 235.550781 247.171875 232.925781 249.953125 231.421875 C 250.28125 231.726562 250.921875 232.347656 251.242188 232.660156 C 255.492188 227.894531 259.527344 222.960938 263.324219 217.839844 C 265.085938 214.519531 268.050781 211.984375 269.324219 208.417969 C 271.210938 204.296875 273.738281 200.378906 274.503906 195.84375 C 275.015625 194.8125 275.714844 193.882812 276.28125 192.894531 C 275.816406 195.3125 279.335938 196.148438 278.511719 198.5625 C 280.984375 198.546875 280.34375 201.105469 280.265625 202.722656 C 280.628906 203.074219 281.375 203.769531 281.742188 204.121094 C 283.925781 205.441406 284.714844 207.875 284.386719 210.335938 C 287.554688 211.585938 285.804688 215.488281 287.679688 217.609375 C 287.933594 218.730469 288.253906 219.855469 288.554688 221 C 288.085938 222.949219 286.941406 224.6875 286.371094 226.636719 C 286.828125 228.902344 286.386719 231.332031 285.09375 233.269531 C 282.664062 237.199219 280.832031 241.539062 277.703125 244.996094 C 276.417969 246.398438 276.015625 248.339844 274.9375 249.890625 C 274.046875 252.324219 272.113281 254.167969 270.429688 256.074219 C 263.847656 263.320312 256.519531 269.953125 248.621094 275.742188 C 245.238281 278.710938 241.253906 280.839844 237.335938 282.992188 C 226.109375 291.09375 212.058594 294.988281 198.285156 295.1875 C 195.230469 295.433594 192.265625 294.082031 189.242188 294.636719 C 185.082031 293.789062 180.949219 292.730469 176.695312 292.578125 C 172.128906 290.882812 167.234375 290.277344 162.8125 288.148438 C 159.917969 287.207031 157.03125 286.179688 154.421875 284.605469 C 148.386719 282.597656 142.980469 279.046875 137.355469 276.121094 C 133.296875 273.765625 129.800781 270.625 125.96875 267.96875 C 122.234375 265.085938 118.988281 261.640625 115.601562 258.394531 C 115.363281 258.167969 114.917969 257.730469 114.6875 257.503906 C 105.304688 248.140625 97.996094 236.636719 93.414062 224.199219 C 88.902344 214.695312 88.441406 203.992188 87.601562 193.683594 C 88.199219 193.589844 89.382812 193.378906 89.976562 193.285156 Z M 246.257812 237.125 C 247.238281 237.453125 248.035156 235.8125 247.507812 235.09375 C 246.484375 234.6875 245.585938 236.359375 246.257812 237.125 " fill-opacity="1" fill-rule="nonzero"/><path fill="#1c14ff" d="M 226.675781 117.015625 C 227.496094 116.574219 228.167969 115.347656 229.257812 115.851562 C 231.546875 116.949219 233.761719 118.222656 235.9375 119.558594 C 238.566406 120.300781 240.8125 121.875 243.117188 123.300781 C 243.398438 123.171875 243.964844 122.921875 244.246094 122.804688 C 245.746094 125.101562 247.476562 127.269531 249.671875 128.960938 C 251.914062 130.714844 251.761719 133.847656 253.105469 136.175781 C 254.832031 142.640625 250.410156 149.230469 244.957031 152.375 C 242.46875 155.789062 237.445312 154.78125 233.953125 153.855469 C 230.117188 152.863281 229.105469 148.640625 226.078125 146.664062 C 225.625 145.648438 225.242188 144.601562 225.019531 143.558594 C 222.753906 141.171875 223.027344 137.519531 220.949219 135.011719 C 220.527344 131.132812 220.171875 127.226562 220.878906 123.355469 C 223.210938 122.71875 222.191406 120.84375 221.550781 119.25 C 221.898438 118.972656 222.605469 118.40625 222.964844 118.125 C 223.835938 119.132812 224.59375 120.214844 225.425781 121.292969 C 226.242188 120.003906 226.589844 118.503906 226.675781 117.015625 " fill-opacity="1" fill-rule="nonzero"/></svg>