<svg xmlns="http://www.w3.org/2000/svg" xmlns:xlink="http://www.w3.org/1999/xlink" width="500" zoomAndPan="magnify" viewBox="0 0 375 374.999991" height="500" preserveAspectRatio="xMidYMid meet" version="1.0"><defs><clipPath id="83e2ae2f46"><path d="M 14.621094 15.054688 L 360.371094 15.054688 L 360.371094 360 L 14.621094 360 Z M 14.621094 15.054688 " clip-rule="nonzero"/></clipPath></defs><g clip-path="url(#83e2ae2f46)"><path fill="#1c14ff" d="M 360.355469 187.492188 C 360.355469 190.3125 360.285156 193.132812 360.144531 195.953125 C 360.007812 198.769531 359.800781 201.585938 359.523438 204.394531 C 359.246094 207.203125 358.898438 210 358.484375 212.792969 C 358.070312 215.585938 357.585938 218.363281 357.03125 221.132812 C 356.480469 223.898438 355.863281 226.652344 355.175781 229.390625 C 354.488281 232.128906 353.734375 234.847656 352.910156 237.546875 C 352.089844 240.246094 351.203125 242.925781 350.25 245.582031 C 349.296875 248.242188 348.28125 250.871094 347.195312 253.480469 C 346.113281 256.085938 344.96875 258.667969 343.757812 261.21875 C 342.550781 263.769531 341.277344 266.289062 339.945312 268.777344 C 338.609375 271.265625 337.21875 273.71875 335.761719 276.140625 C 334.308594 278.5625 332.796875 280.945312 331.222656 283.292969 C 329.652344 285.636719 328.023438 287.945312 326.339844 290.210938 C 324.652344 292.476562 322.914062 294.703125 321.117188 296.882812 C 319.324219 299.066406 317.476562 301.203125 315.578125 303.292969 C 313.675781 305.382812 311.726562 307.425781 309.726562 309.421875 C 307.726562 311.417969 305.679688 313.363281 303.582031 315.257812 C 301.488281 317.152344 299.34375 318.996094 297.160156 320.785156 C 294.972656 322.578125 292.742188 324.3125 290.46875 325.992188 C 288.199219 327.675781 285.886719 329.300781 283.535156 330.867188 C 281.183594 332.433594 278.792969 333.945312 276.367188 335.394531 C 273.941406 336.84375 271.480469 338.234375 268.984375 339.566406 C 266.488281 340.898438 263.964844 342.164062 261.40625 343.371094 C 258.847656 344.578125 256.265625 345.722656 253.648438 346.800781 C 251.035156 347.882812 248.398438 348.898438 245.734375 349.847656 C 243.070312 350.796875 240.386719 351.683594 237.679688 352.503906 C 234.972656 353.320312 232.246094 354.074219 229.503906 354.761719 C 226.757812 355.445312 224 356.0625 221.226562 356.613281 C 218.449219 357.164062 215.664062 357.648438 212.867188 358.0625 C 210.066406 358.476562 207.261719 358.820312 204.445312 359.097656 C 201.628906 359.375 198.808594 359.582031 195.984375 359.71875 C 193.160156 359.859375 190.332031 359.925781 187.503906 359.925781 C 184.675781 359.925781 181.847656 359.859375 179.023438 359.71875 C 176.195312 359.582031 173.375 359.375 170.5625 359.097656 C 167.746094 358.820312 164.9375 358.476562 162.140625 358.0625 C 159.34375 357.648438 156.554688 357.164062 153.78125 356.613281 C 151.007812 356.0625 148.246094 355.445312 145.503906 354.761719 C 142.757812 354.074219 140.035156 353.320312 137.328125 352.503906 C 134.621094 351.683594 131.933594 350.796875 129.269531 349.847656 C 126.609375 348.898438 123.96875 347.882812 121.355469 346.800781 C 118.742188 345.722656 116.15625 344.578125 113.601562 343.371094 C 111.042969 342.164062 108.515625 340.898438 106.023438 339.566406 C 103.527344 338.234375 101.066406 336.84375 98.640625 335.394531 C 96.214844 333.945312 93.824219 332.433594 91.472656 330.867188 C 89.121094 329.300781 86.808594 327.675781 84.535156 325.992188 C 82.261719 324.3125 80.035156 322.578125 77.847656 320.785156 C 75.660156 318.996094 73.519531 317.152344 71.421875 315.257812 C 69.328125 313.363281 67.277344 311.417969 65.277344 309.421875 C 63.277344 307.425781 61.328125 305.382812 59.429688 303.292969 C 57.527344 301.203125 55.683594 299.066406 53.886719 296.882812 C 52.09375 294.703125 50.351562 292.476562 48.667969 290.210938 C 46.984375 287.945312 45.355469 285.636719 43.78125 283.292969 C 42.210938 280.945312 40.699219 278.5625 39.242188 276.140625 C 37.789062 273.71875 36.394531 271.265625 35.0625 268.777344 C 33.726562 266.289062 32.457031 263.769531 31.246094 261.21875 C 30.039062 258.667969 28.890625 256.085938 27.808594 253.480469 C 26.726562 250.871094 25.710938 248.242188 24.757812 245.582031 C 23.804688 242.925781 22.914062 240.246094 22.09375 237.546875 C 21.273438 234.847656 20.519531 232.128906 19.832031 229.390625 C 19.144531 226.652344 18.523438 223.898438 17.972656 221.132812 C 17.421875 218.363281 16.9375 215.585938 16.523438 212.792969 C 16.109375 210 15.761719 207.203125 15.484375 204.394531 C 15.207031 201.585938 15 198.769531 14.859375 195.953125 C 14.722656 193.132812 14.652344 190.3125 14.652344 187.492188 C 14.652344 184.667969 14.722656 181.847656 14.859375 179.03125 C 15 176.210938 15.207031 173.398438 15.484375 170.589844 C 15.761719 167.78125 16.109375 164.980469 16.523438 162.191406 C 16.9375 159.398438 17.421875 156.617188 17.972656 153.851562 C 18.523438 151.082031 19.144531 148.328125 19.832031 145.59375 C 20.519531 142.855469 21.273438 140.136719 22.09375 137.433594 C 22.914062 134.734375 23.804688 132.054688 24.757812 129.398438 C 25.710938 126.742188 26.726562 124.109375 27.808594 121.503906 C 28.890625 118.894531 30.039062 116.316406 31.246094 113.765625 C 32.457031 111.214844 33.726562 108.695312 35.0625 106.207031 C 36.394531 103.714844 37.789062 101.261719 39.242188 98.839844 C 40.699219 96.421875 42.210938 94.035156 43.78125 91.691406 C 45.355469 89.34375 46.984375 87.039062 48.667969 84.769531 C 50.351562 82.503906 52.09375 80.28125 53.886719 78.097656 C 55.683594 75.917969 57.527344 73.78125 59.429688 71.691406 C 61.328125 69.597656 63.277344 67.554688 65.277344 65.558594 C 67.277344 63.566406 69.328125 61.621094 71.421875 59.722656 C 73.519531 57.828125 75.660156 55.984375 77.847656 54.195312 C 80.035156 52.40625 82.261719 50.671875 84.535156 48.988281 C 86.808594 47.308594 89.121094 45.683594 91.472656 44.117188 C 93.824219 42.546875 96.214844 41.039062 98.640625 39.585938 C 101.066406 38.136719 103.527344 36.746094 106.023438 35.414062 C 108.515625 34.085938 111.042969 32.816406 113.601562 31.609375 C 116.15625 30.402344 118.742188 29.261719 121.355469 28.179688 C 123.96875 27.101562 126.609375 26.085938 129.269531 25.132812 C 131.933594 24.183594 134.621094 23.300781 137.328125 22.480469 C 140.035156 21.660156 142.757812 20.90625 145.503906 20.222656 C 148.246094 19.535156 151.007812 18.917969 153.78125 18.367188 C 156.554688 17.816406 159.34375 17.335938 162.140625 16.921875 C 164.9375 16.507812 167.746094 16.160156 170.5625 15.886719 C 173.375 15.609375 176.195312 15.402344 179.023438 15.261719 C 181.847656 15.125 184.675781 15.054688 187.503906 15.054688 C 190.332031 15.054688 193.160156 15.125 195.984375 15.261719 C 198.808594 15.402344 201.628906 15.609375 204.445312 15.886719 C 207.261719 16.160156 210.066406 16.507812 212.867188 16.921875 C 215.664062 17.335938 218.449219 17.816406 221.226562 18.367188 C 224 18.917969 226.757812 19.535156 229.503906 20.222656 C 232.246094 20.90625 234.972656 21.660156 237.679688 22.480469 C 240.386719 23.300781 243.070312 24.183594 245.734375 25.132812 C 248.398438 26.085938 251.035156 27.101562 253.652344 28.179688 C 256.265625 29.261719 258.847656 30.402344 261.40625 31.609375 C 263.964844 32.816406 266.488281 34.085938 268.984375 35.414062 C 271.480469 36.746094 273.941406 38.136719 276.367188 39.585938 C 278.792969 41.039062 281.183594 42.546875 283.535156 44.117188 C 285.886719 45.683594 288.199219 47.308594 290.46875 48.988281 C 292.742188 50.671875 294.972656 52.40625 297.160156 54.195312 C 299.34375 55.984375 301.488281 57.828125 303.582031 59.722656 C 305.679688 61.621094 307.726562 63.566406 309.726562 65.558594 C 311.726562 67.554688 313.675781 69.597656 315.578125 71.691406 C 317.476562 73.78125 319.324219 75.917969 321.117188 78.097656 C 322.914062 80.28125 324.652344 82.503906 326.339844 84.769531 C 328.023438 87.039062 329.652344 89.34375 331.222656 91.691406 C 332.796875 94.035156 334.308594 96.421875 335.761719 98.839844 C 337.21875 101.261719 338.609375 103.714844 339.945312 106.207031 C 341.277344 108.695312 342.550781 111.214844 343.757812 113.765625 C 344.96875 116.316406 346.113281 118.894531 347.195312 121.503906 C 348.28125 124.109375 349.296875 126.742188 350.25 129.398438 C 351.203125 132.054688 352.089844 134.734375 352.910156 137.433594 C 353.734375 140.136719 354.488281 142.855469 355.175781 145.59375 C 355.863281 148.328125 356.480469 151.082031 357.03125 153.851562 C 357.585938 156.617188 358.070312 159.398438 358.484375 162.191406 C 358.898438 164.980469 359.246094 167.78125 359.523438 170.589844 C 359.800781 173.398438 360.007812 176.210938 360.144531 179.03125 C 360.285156 181.847656 360.355469 184.667969 360.355469 187.492188 Z M 360.355469 187.492188 " fill-opacity="1" fill-rule="nonzero"/></g><path fill="#d9d9d9" d="M 332.269531 187.492188 C 332.25 202.742188 329.90625 217.753906 325.175781 232.28125 C 320.660156 246.148438 313.988281 259.265625 305.503906 271.195312 C 297.246094 282.808594 286.960938 293.464844 275.632812 302.101562 C 264.035156 310.941406 251.085938 318.117188 237.453125 323.089844 C 223.191406 328.292969 208.246094 331.238281 193.125 331.800781 C 177.820312 332.371094 162.65625 330.609375 147.929688 326.445312 C 133.714844 322.425781 120.300781 316.273438 107.929688 308.15625 C 95.855469 300.238281 85.007812 290.472656 75.746094 279.316406 C 66.601562 268.296875 58.902344 255.53125 53.492188 242.277344 C 47.839844 228.433594 44.300781 213.691406 43.167969 198.859375 C 41.996094 183.507812 43.1875 168.128906 46.835938 153.21875 C 50.34375 138.886719 55.972656 125.316406 63.632812 112.710938 C 71.195312 100.265625 80.5625 89.097656 91.480469 79.410156 C 102.316406 69.796875 114.667969 61.835938 127.917969 55.824219 C 141.28125 49.757812 156.023438 45.6875 170.601562 44.03125 C 185.863281 42.304688 201.398438 42.898438 216.378906 45.945312 C 230.96875 48.914062 244.945312 54.058594 257.917969 61.28125 C 270.632812 68.363281 282.101562 77.226562 292.171875 87.726562 C 302.246094 98.230469 310.679688 110.210938 317.21875 123.289062 C 323.820312 136.484375 328.324219 150.785156 330.613281 165.433594 C 331.738281 172.640625 332.261719 180.113281 332.273438 187.492188 C 332.277344 191.535156 338.558594 191.542969 338.550781 187.492188 C 338.53125 171.761719 336.105469 156 331.234375 141.035156 C 326.53125 126.585938 319.636719 112.835938 310.8125 100.464844 C 301.929688 88.003906 291.253906 77.003906 279.113281 67.699219 C 267.050781 58.453125 253.578125 51.132812 239.3125 45.910156 C 224.585938 40.515625 208.992188 37.519531 193.332031 36.914062 C 177.496094 36.300781 161.511719 38.175781 146.261719 42.484375 C 131.589844 46.632812 117.507812 53.042969 104.761719 61.40625 C 92.117188 69.699219 80.6875 79.867188 71.058594 91.527344 C 61.300781 103.34375 53.414062 116.503906 47.585938 130.671875 C 41.660156 145.078125 38.113281 160.398438 36.902344 175.921875 C 35.671875 191.753906 36.980469 207.8125 40.734375 223.242188 C 44.34375 238.078125 50.28125 252.394531 58.210938 265.445312 C 66.054688 278.359375 75.867188 290.132812 87.1875 300.144531 C 98.515625 310.167969 111.3125 318.53125 125.105469 324.746094 C 139.429688 331.199219 154.59375 335.367188 170.195312 337.183594 C 186.054688 339.03125 202.203125 338.296875 217.851562 335.136719 C 232.902344 332.09375 247.492188 326.671875 260.914062 319.21875 C 274.140625 311.875 286.289062 302.492188 296.746094 291.558594 C 307.203125 280.625 316 268.1875 322.726562 254.691406 C 329.609375 240.894531 334.390625 226.066406 336.730469 210.824219 C 337.914062 203.097656 338.539062 195.308594 338.550781 187.492188 C 338.554688 183.453125 332.277344 183.445312 332.269531 187.492188 Z M 332.269531 187.492188 " fill-opacity="1" fill-rule="nonzero"/><path fill="#d9d9d9" d="M 269.714844 205.324219 C 269.710938 207.574219 269.625 209.824219 269.445312 212.066406 C 269.355469 213.148438 269.25 214.222656 269.117188 215.300781 C 269.085938 215.5625 269.03125 215.835938 269.019531 216.097656 C 269.039062 215.566406 269.058594 215.8125 269.003906 216.175781 C 268.925781 216.738281 268.839844 217.304688 268.746094 217.867188 C 268.0625 222.015625 267.042969 226.109375 265.6875 230.089844 C 265.359375 231.054688 265.011719 232.015625 264.644531 232.964844 C 264.460938 233.441406 264.273438 233.910156 264.078125 234.378906 C 264.039062 234.480469 263.996094 234.582031 263.957031 234.679688 C 263.796875 235.082031 264.191406 234.136719 264.019531 234.53125 C 263.902344 234.796875 263.792969 235.0625 263.675781 235.328125 C 262.867188 237.167969 261.980469 238.972656 261.027344 240.742188 C 260.0625 242.527344 259.019531 244.273438 257.914062 245.972656 C 257.371094 246.804688 256.808594 247.628906 256.234375 248.4375 C 255.945312 248.84375 255.65625 249.242188 255.359375 249.640625 C 255.234375 249.8125 255.105469 249.984375 254.976562 250.152344 C 254.792969 250.394531 254.4375 250.941406 254.824219 250.359375 C 253.730469 252.015625 252.253906 253.527344 250.917969 254.988281 C 249.585938 256.449219 248.183594 257.867188 246.734375 259.222656 C 245.253906 260.609375 243.71875 261.9375 242.132812 263.207031 C 241.9375 263.363281 241.742188 263.519531 241.546875 263.671875 C 241.457031 263.742188 240.90625 264.160156 241.273438 263.886719 C 241.65625 263.605469 241.003906 264.089844 240.90625 264.164062 C 240.679688 264.335938 240.449219 264.507812 240.21875 264.675781 C 239.410156 265.273438 238.589844 265.851562 237.761719 266.417969 C 234.375 268.722656 230.816406 270.773438 227.132812 272.558594 C 226.175781 273.023438 225.207031 273.472656 224.234375 273.898438 C 224.03125 273.988281 223.828125 274.078125 223.625 274.164062 C 223.492188 274.222656 223.355469 274.289062 223.21875 274.339844 C 223.222656 274.335938 223.789062 274.105469 223.460938 274.238281 C 222.945312 274.441406 222.433594 274.660156 221.917969 274.863281 C 219.976562 275.632812 218.007812 276.332031 216.019531 276.960938 C 211.921875 278.261719 207.734375 279.269531 203.496094 279.996094 C 202.964844 280.085938 202.429688 280.175781 201.894531 280.257812 C 201.625 280.296875 201.355469 280.339844 201.089844 280.378906 C 200.878906 280.40625 199.914062 280.507812 200.765625 280.425781 C 199.679688 280.53125 198.59375 280.695312 197.503906 280.804688 C 195.296875 281.023438 193.085938 281.167969 190.871094 281.242188 C 186.332031 281.390625 181.78125 281.242188 177.261719 280.78125 C 176.757812 280.730469 176.25 280.675781 175.746094 280.617188 C 175.472656 280.582031 175.203125 280.550781 174.929688 280.515625 C 174.816406 280.503906 174.699219 280.488281 174.582031 280.472656 C 174.148438 280.414062 174.253906 280.367188 174.609375 280.476562 C 173.609375 280.171875 172.425781 280.15625 171.390625 279.976562 C 169.277344 279.613281 167.175781 279.175781 165.09375 278.671875 C 160.9375 277.660156 156.851562 276.367188 152.878906 274.78125 C 152.433594 274.605469 151.988281 274.417969 151.542969 274.238281 C 151.214844 274.101562 151.777344 274.335938 151.785156 274.339844 C 151.648438 274.289062 151.511719 274.222656 151.375 274.164062 C 151.105469 274.046875 150.835938 273.929688 150.566406 273.808594 C 149.628906 273.394531 148.695312 272.960938 147.773438 272.511719 C 145.9375 271.621094 144.136719 270.664062 142.371094 269.640625 C 140.59375 268.613281 138.851562 267.515625 137.152344 266.355469 C 136.324219 265.789062 135.503906 265.207031 134.695312 264.613281 C 134.496094 264.460938 134.296875 264.3125 134.09375 264.160156 C 133.976562 264.074219 133.375 263.625 133.730469 263.886719 C 134.109375 264.167969 133.449219 263.667969 133.371094 263.605469 C 133.148438 263.429688 132.925781 263.25 132.703125 263.074219 C 129.574219 260.554688 126.640625 257.800781 123.941406 254.828125 C 123.273438 254.097656 122.621094 253.351562 121.984375 252.589844 C 121.6875 252.238281 121.394531 251.882812 121.105469 251.527344 C 120.949219 251.332031 120.792969 251.140625 120.640625 250.945312 C 120.566406 250.855469 120.015625 250.144531 120.296875 250.511719 C 120.570312 250.863281 120.113281 250.269531 120.027344 250.152344 C 119.875 249.953125 119.726562 249.753906 119.582031 249.554688 C 119.285156 249.15625 118.996094 248.753906 118.707031 248.351562 C 118.113281 247.511719 117.535156 246.660156 116.976562 245.796875 C 114.777344 242.402344 112.855469 238.832031 111.242188 235.128906 C 111.140625 234.898438 111.03125 234.667969 110.941406 234.429688 C 111.125 234.914062 111.0625 234.710938 110.925781 234.378906 C 110.71875 233.878906 110.515625 233.371094 110.320312 232.863281 C 109.957031 231.910156 109.609375 230.953125 109.28125 229.984375 C 108.605469 227.996094 108.015625 225.976562 107.511719 223.933594 C 107.003906 221.894531 106.582031 219.832031 106.242188 217.753906 C 106.15625 217.226562 106.074219 216.699219 105.996094 216.171875 C 105.980469 216.058594 105.964844 215.945312 105.949219 215.832031 C 105.886719 215.386719 106.027344 216.433594 105.972656 215.984375 C 105.9375 215.714844 105.902344 215.449219 105.871094 215.183594 C 105.738281 214.070312 105.628906 212.949219 105.542969 211.832031 C 105.375 209.667969 105.292969 207.496094 105.289062 205.320312 C 105.289062 203.679688 103.847656 202.105469 102.152344 202.183594 C 100.453125 202.257812 99.007812 203.5625 99.011719 205.320312 C 99.023438 214.304688 100.386719 223.351562 103.296875 231.863281 C 106.113281 240.105469 110.273438 247.753906 115.609375 254.632812 C 120.753906 261.261719 126.976562 266.976562 133.894531 271.71875 C 141.035156 276.609375 148.96875 280.359375 157.207031 282.984375 C 165.898438 285.75 175.023438 287.222656 184.132812 287.519531 C 193.378906 287.824219 202.707031 286.894531 211.695312 284.699219 C 220.144531 282.632812 228.367188 279.378906 235.898438 275.007812 C 243.1875 270.777344 249.910156 265.4375 255.578125 259.191406 C 261.242188 252.945312 265.925781 245.828125 269.273438 238.097656 C 272.878906 229.773438 275.019531 220.992188 275.734375 211.949219 C 275.910156 209.742188 275.992188 207.53125 275.996094 205.320312 C 275.996094 203.679688 274.550781 202.105469 272.855469 202.179688 C 271.152344 202.257812 269.71875 203.5625 269.714844 205.320312 Z M 269.714844 205.324219 " fill-opacity="1" fill-rule="nonzero"/><path fill="#d9d9d9" d="M 129.464844 96.738281 C 136.882812 126.960938 142.898438 132.960938 173.191406 140.359375 C 142.898438 147.761719 136.882812 153.761719 129.464844 183.980469 C 122.046875 153.761719 116.035156 147.761719 85.738281 140.359375 C 116.035156 132.960938 122.046875 126.960938 129.464844 96.738281 Z M 129.464844 96.738281 " fill-opacity="1" fill-rule="nonzero"/><path fill="#d9d9d9" d="M 245.539062 96.738281 C 252.957031 126.960938 258.972656 132.960938 289.265625 140.359375 C 258.972656 147.761719 252.957031 153.761719 245.539062 183.980469 C 238.121094 153.761719 232.109375 147.761719 201.8125 140.359375 C 232.109375 132.960938 238.121094 126.960938 245.539062 96.738281 Z M 245.539062 96.738281 " fill-opacity="1" fill-rule="nonzero"/></svg>